<svg xmlns="http://www.w3.org/2000/svg" xmlns:xlink="http://www.w3.org/1999/xlink" width="316" height="80" viewBox="0 0 316 80" version="1.1">
  <title>siwapp</title>
  <g stroke="none" stroke-width="1" fill="none" fill-rule="evenodd">
    <g fill="#E25E35">
      <path d="M65.53 50.52C67.77 57.91 69.49 58.98 75.7 58.98 82.23 58.98 83.84 57.05 85.44 50.84L93.15 20.11 93.37 20.11 101.08 50.84C102.68 57.05 104.29 58.98 110.82 58.98 117.03 58.98 118.75 57.91 121 50.52L132.45 13.26C132.99 11.54 133.53 9.83 133.53 7.47 133.53 3.4 129.88 0.19 125.92 0.19 120.14 0.19 119.18 3.3 118.21 7.79L110.5 42.06 110.29 42.06 103.54 10.9C102.15 4.69 100.65-0.02 93.26 0.19 85.98-0.02 84.69 4.8 83.41 10.9L76.77 42.06 76.56 42.06 65.53 50.52"></path>
      <path d="M0.75 17.65C0.75 28.14 7.82 31.89 16.92 34.14L26.13 36.39C31.7 37.78 35.12 38.42 35.12 42.38 35.12 45.6 31.59 48.06 26.02 48.06 14.45 48.06 13.81 38.42 7.07 38.42 2.68 38.42 0.75 41.53 0.75 44.95 0.75 52.66 12.53 58.98 26.66 58.98 38.44 58.98 50.76 53.09 50.76 40.35 50.76 29.43 40.16 25.68 31.27 23.64L24.74 22.14C19.92 21.07 16.38 20.22 16.38 16.58 16.38 13.26 19.92 11.76 25.38 11.76 35.23 11.76 35.44 18.93 41.55 18.93 45.62 18.93 48.08 15.72 48.08 12.08 48.08 4.9 36.09 0.19 24.2 0.19 13.38 0.19 0.75 4.9 0.75 17.65"></path>
      <path d="M188.98 16.25C188.98 5.01 178.59 0.19 163.6 0.19 147.54 0.19 138.76 8.11 138.76 14.33 138.76 17.54 141.43 20.32 145.4 20.32 151.61 20.32 151.93 11.76 163.49 11.76 168.74 11.76 173.35 13.68 173.35 18.18 173.35 22.68 170.35 23.54 166.6 23.96L157.07 25.03C145.07 26.43 135.22 30.07 135.22 43.03 135.22 52.88 144 58.98 152.89 58.98 161.14 58.98 168.2 56.63 174.31 49.88 174.52 54.7 176.77 58.98 183.52 58.98 187.27 58.98 190.59 56.52 190.59 52.98 190.59 50.52 188.98 49.02 188.98 42.49L188.98 16.25 188.98 16.25ZM173.35 37.35C173.35 43.13 168.1 48.7 159.53 48.7 154.18 48.7 150.86 45.81 150.86 42.28 150.86 37.56 154.39 35.53 160.92 34.57L166.6 33.71C168.42 33.39 171.63 32.85 173.35 31.25L173.35 37.35 173.35 37.35Z"></path>
      <path d="M197.76 71.78C197.76 76.92 200.87 79.6 205.58 79.6 210.29 79.6 213.4 76.92 213.4 71.78L213.4 50.9 213.61 50.9C216.5 55.93 221.86 58.82 229.03 58.82 245.52 58.82 253.13 44.8 253.13 29.8 253.13 9.56 241.67 0.03 228.6 0.03 221 0.03 214.68 3.25 212.11 9.89L211.9 9.89 211.9 7.42C211.9 2.6 209.44 0.03 204.83 0.03 200.01 0.03 197.76 2.6 197.76 7.42L197.76 71.78 197.76 71.78ZM237.49 29.27C237.49 36.55 235.03 46.62 225.07 46.62 215.54 46.72 212.54 37.3 212.54 29.27 212.54 20.38 215.97 12.24 225.07 12.24 233.42 12.46 237.49 20.06 237.49 29.27L237.49 29.27Z"></path>
      <path d="M259.78 71.78C259.78 76.92 262.88 79.6 267.6 79.6 272.31 79.6 275.41 76.92 275.41 71.78L275.41 50.9 275.63 50.9C278.52 55.93 283.87 58.82 291.05 58.82 307.54 58.82 315.14 44.8 315.14 29.8 315.14 9.56 303.68 0.03 290.62 0.03 283.02 0.03 276.7 3.25 274.13 9.89L273.91 9.89 273.91 7.42C273.91 2.6 271.45 0.03 266.85 0.03 262.03 0.03 259.78 2.6 259.78 7.42L259.78 71.78 259.78 71.78ZM299.51 29.27C299.51 36.55 297.05 46.62 287.08 46.62 277.55 46.72 274.56 37.3 274.56 29.27 274.56 20.38 277.98 12.24 287.08 12.24 295.44 12.46 299.51 20.06 299.51 29.27L299.51 29.27Z"></path>
      <path d="M66.01 52.01C67.37 55.96 70.17 58.84 75.95 56.86 81.72 54.87 82.15 50.87 80.79 46.92L75.29 29.9C73.93 25.95 71.12 23.07 65.35 25.06 59.58 27.04 59.15 31.04 60.51 34.99L66.01 52.01"></path>
      <path d="M52.31 10.67C53.7 14.94 58.29 17.28 62.56 15.89 66.84 14.5 69.18 9.91 67.79 5.64 66.4 1.36 61.81-0.98 57.53 0.41 53.26 1.8 50.92 6.39 52.31 10.67"></path>
    </g>
  </g>
</svg>
